# xmcd
#
# Track frame offsets: 
#        150
#        13258
#        27384
#        40374
#        52986
#        67285
#        82307
#        96326
#        108901
#        125958
#        142753
#        158449
#        172748
#
# Disc length: 2494 seconds
#
# Revision: 0
# Processed by: cddbd v1.5.2PL0 Copyright (c) Steve Scherf et al.
# Submitted via: ExactAudioCopy v0.95b3
#
DISCID=b109bc0d
DTITLE=Lonesome River Band - The Road With No End
DYEAR=2006
DGENRE=Bluegrass
TTITLE0=Lonesome Won't Get the Best of Me
TTITLE1=It Won't Be Over You
TTITLE2=What I'd Give to Be the Wind
TTITLE3=You Can't Break My Heart
TTITLE4=Whoop and Ride
TTITLE5=Hereafter
TTITLE6=Brother to the Blues
TTITLE7=A Step Away
TTITLE8=New Love
TTITLE9=She's No Lady
TTITLE10=Prisoner's Lament
TTITLE11=Stranger in Your Eyes
TTITLE12=Hillbilly Catfight
EXTD=
EXTT0=
EXTT1=
EXTT2=
EXTT3=
EXTT4=
EXTT5=
EXTT6=
EXTT7=
EXTT8=
EXTT9=
EXTT10=
EXTT11=
EXTT12=
PLAYORDER=
